<svg xmlns="http://www.w3.org/2000/svg" viewBox="0 0 64 64" width="64" height="64">
<rect width="100%" height="100%" fill="black"/>
  <path d="M 30,55 L 30,57 Z" fill="white"/>
  <path d="M 54,42 L 55,42 Z" fill="white"/>
  <path d="M 9,41 L 8,42 L 10,42 L 10,41 Z" fill="white"/>
  <path d="M 56,39 L 57,40 L 61,40 L 59,40 L 58,39 Z" fill="white"/>
  <path d="M 7,38 L 6,39 L 5,39 L 4,40 L 2,40 L 6,40 L 7,39 Z" fill="white"/>
  <path d="M 47,30 L 47,31 L 46,32 L 45,32 L 44,31 L 45,32 L 45,33 L 46,34 L 47,34 L 48,33 L 47,32 Z" fill="white"/>
  <path d="M 42,27 L 41,28 L 41,30 L 40,31 L 40,34 L 39,35 L 40,34 L 40,32 L 41,31 L 41,29 L 43,27 Z" fill="white"/>
  <path d="M 3,9 L 2,10 L 2,11 L 3,12 L 3,16 L 2,17 L 2,18 L 3,19 L 3,21 L 4,21 L 5,20 L 6,20 L 7,21 L 7,25 L 6,26 L 5,25 L 4,25 L 5,26 L 6,26 L 7,27 L 7,31 L 7,30 L 8,29 L 11,32 L 11,33 L 12,34 L 12,43 L 13,43 L 14,44 L 14,45 L 15,45 L 16,44 L 17,44 L 18,43 L 18,42 L 19,41 L 20,42 L 21,42 L 21,41 L 23,39 L 24,40 L 24,41 L 23,42 L 23,43 L 22,44 L 22,45 L 21,46 L 21,48 L 20,49 L 20,50 L 19,51 L 19,53 L 17,55 L 17,56 L 18,55 L 19,56 L 19,57 L 20,58 L 20,54 L 21,53 L 21,52 L 22,51 L 22,49 L 23,48 L 24,49 L 24,51 L 25,50 L 26,50 L 27,49 L 27,48 L 25,46 L 25,45 L 27,43 L 28,44 L 28,46 L 29,47 L 29,48 L 32,48 L 33,47 L 34,48 L 35,48 L 35,47 L 36,46 L 37,47 L 37,49 L 39,51 L 40,51 L 40,50 L 41,49 L 42,50 L 42,53 L 43,54 L 43,55 L 44,56 L 44,57 L 44,56 L 45,55 L 46,56 L 47,56 L 46,55 L 46,54 L 44,52 L 44,50 L 43,49 L 43,48 L 42,47 L 43,46 L 41,44 L 41,43 L 40,42 L 40,41 L 41,40 L 43,42 L 44,42 L 45,41 L 46,42 L 46,44 L 47,44 L 48,45 L 49,45 L 49,44 L 50,43 L 51,43 L 51,40 L 52,39 L 52,37 L 51,36 L 51,34 L 50,33 L 50,31 L 50,36 L 47,39 L 46,39 L 44,37 L 44,35 L 44,37 L 42,39 L 41,39 L 41,40 L 40,41 L 38,39 L 37,39 L 36,38 L 37,37 L 37,32 L 38,31 L 38,30 L 39,29 L 39,28 L 38,29 L 37,29 L 36,28 L 36,27 L 36,29 L 35,30 L 33,28 L 33,27 L 35,25 L 35,23 L 34,22 L 35,21 L 34,22 L 34,23 L 33,24 L 33,25 L 32,26 L 30,24 L 30,22 L 29,21 L 29,22 L 28,23 L 28,25 L 27,26 L 27,28 L 26,29 L 23,26 L 23,25 L 22,25 L 20,27 L 19,26 L 19,25 L 18,24 L 20,22 L 21,22 L 22,21 L 23,21 L 25,19 L 25,18 L 27,16 L 30,16 L 30,14 L 28,14 L 27,13 L 28,12 L 28,11 L 27,10 L 27,9 L 26,9 L 24,11 L 23,11 L 21,9 L 20,9 L 19,10 L 19,11 L 18,12 L 16,12 L 13,15 L 11,15 L 10,14 L 8,14 L 5,11 L 5,10 L 4,9 Z" fill="white"/>
  <path d="M 42,8 L 42,9 L 41,10 L 40,9 L 39,10 L 38,10 L 37,9 L 36,9 L 36,10 L 35,11 L 33,11 L 33,12 L 34,13 L 34,14 L 33,15 L 33,16 L 36,16 L 39,19 L 39,20 L 40,21 L 41,21 L 42,22 L 44,22 L 45,23 L 45,25 L 47,25 L 48,26 L 50,26 L 52,28 L 52,30 L 53,31 L 52,32 L 53,32 L 57,28 L 57,27 L 59,25 L 58,26 L 57,26 L 56,25 L 56,24 L 57,23 L 56,22 L 56,21 L 57,20 L 59,20 L 60,21 L 60,20 L 61,19 L 61,17 L 60,16 L 60,13 L 62,11 L 61,11 L 60,10 L 59,10 L 58,11 L 58,12 L 57,13 L 56,13 L 55,14 L 53,14 L 52,15 L 51,15 L 48,12 L 46,12 L 44,10 L 44,9 L 43,9 Z" fill="white"/>
</svg>